<?xml version="1.0" standalone="no"?>
<!DOCTYPE svg PUBLIC "-//W3C//DTD SVG 20010904//EN"
 "http://www.w3.org/TR/2001/REC-SVG-20010904/DTD/svg10.dtd">
<svg version="1.0" xmlns="http://www.w3.org/2000/svg"
 width="701.000000pt" height="722.000000pt" viewBox="0 0 701.000000 722.000000"
 preserveAspectRatio="xMidYMid meet">

<g transform="translate(0.000000,722.000000) scale(0.100000,-0.100000)"
fill="#000000" stroke="none">
<path d="M1383 6875 c-100 -28 -174 -92 -220 -190 l-28 -60 0 -3010 0 -3010
33 -67 c102 -208 371 -255 527 -93 27 29 347 434 710 901 l660 850 1413 -909
c778 -500 1434 -916 1459 -924 63 -22 184 -14 241 16 66 34 128 96 159 160
l28 56 0 3020 0 3020 -28 56 c-32 67 -109 142 -175 171 -71 32 -180 30 -252
-3 -30 -15 -682 -430 -1449 -923 -1124 -723 -1397 -894 -1407 -884 -6 7 -311
398 -677 869 -366 471 -684 872 -707 892 -74 63 -192 89 -287 62z m4325 -4243
l-3 -989 -765 984 c-421 541 -764 988 -763 993 2 5 346 450 765 989 l763 981
3 -984 c1 -542 1 -1430 0 -1974z m-3553 2499 c185 -238 338 -438 341 -445 3
-8 -647 -438 -688 -454 -4 -2 -8 301 -8 674 0 390 4 674 9 669 5 -6 160 -205
346 -444z m2014 -438 c-225 -291 -413 -529 -417 -530 -4 -1 -68 77 -143 174
l-137 177 547 352 c300 194 549 353 553 353 4 1 -177 -236 -403 -526z m-1050
-803 c111 -143 207 -262 213 -266 6 -4 6 -9 1 -13 -6 -3 -99 -121 -208 -261
-108 -140 -201 -259 -205 -263 -5 -6 -686 423 -823 518 -16 11 30 43 395 279
227 146 416 266 419 266 4 0 97 -117 208 -260z m1053 -1353 l415 -534 -553
356 c-305 196 -554 359 -554 363 0 10 263 348 271 348 3 0 193 -240 421 -533z
m-1691 34 l26 -16 -281 -361 c-155 -199 -314 -403 -353 -454 l-73 -93 0 681 0
681 328 -211 c180 -116 339 -218 353 -227z"/>
</g>
</svg>
